<?xml version="1.0" encoding="UTF-8"?>
<svg xmlns="http://www.w3.org/2000/svg" version="1.1" viewBox="0 0 100 100">
  <defs>
    <style>
      path {
        fill: #000;
      }
      @media (prefers-color-scheme: dark) {
        path {
          fill: #fff;
        }
      }
    </style>
  </defs>
  <path d="M75.91,7.25c18.53,11.01,27.93,32.31,22.65,53.78-3.22,13.06-12.5,24.8-24.71,30.23-3.24,1.44-8.25,2.95-11.78,2.59-1.81-.18-1.17-1.02.05-1.5,1.88-.75,4.22-1.15,6.2-1.87,20.31-7.34,32.2-28.46,27.94-50.05C91.32,15.51,66.3-.31,41.94,6.5,21.03,12.35,6.85,33.63,12.3,55.58c3.86,15.55,15.61,26.04,29.73,32.22,3.29,1.44,12.26,3.67,9.83,8.97-2.09,4.55-11.51,3.08-15.33,2.14-11.89-2.92-23.29-12.08-29.56-22.59C-9.01,49.57,3.69,14.43,32.09,3.32c14.45-5.65,30.55-3.96,43.82,3.93Z"/>
</svg>