<?xml version="1.0" encoding="UTF-8"?>
<svg fill="#FFF" xmlns="http://www.w3.org/2000/svg" version="1.1" viewBox="0 0 1000 708" width="1000" height="708">
  <path d="M884.96,373.4c-1.59-44.63-37.33-88.68-107.53-88.72,24.84-95.42.93-123.98.93-123.98-19.66-34.82-52.97-11.87-72.62,9.39-18.66,20.18-31.34,44.96-46.65,67.67,5.82-19.17,14.65-40.92,14.65-64.83,0-26.04-19.23-49.62-47.43-18.05-21.86,24.47-32.95,43.34-47.29,74.78,2.18-8.81,4.2-18.32,5.88-28.39,7.53-45.29,7.67-154.73-67.35-112.42-49.17,27.74-74.9,101.35-90.6,136.09-50.66,102.44-76.04,102.41-76.04,102.41-11.26,0,.16-38.74,3.52-48.9,14.97-45.34,37.58-87.73,54.87-132.02-14.58,11.49-34.6,8.03-34.6,8.03-13.45,33.65-26.45,61.92-44.9,93.03-14.78,24.92-37.33,58.47-62.34,73.11-45.21,26.48-37.4-38.85-32.51-64.48,3.2-16.74,8.94-34.53,14.56-50.61,0,0,2.47-7.52,6.56-18.47,52.53-13.31,106.44-53.49,128.41-104.15,13.67-31.52,20.41-86.06-31.3-71.25-27.72,7.94-56.76,38.36-74.23,60.97-25.83,33.42-43.59,73.06-55.49,113.76-59.98.02-91.46-34.26-96.81-72.52C115.73,35.55,193.91-14.78,262.56,9.28c16.65,5.84,17.14,7.26,22.78,10.56C220.67-26.9,111.88,12.48,115.04,100.99c1.59,44.63,37.33,88.68,107.53,88.72-24.84,95.42-.93,123.98-.93,123.98,19.66,34.82,52.97,11.87,72.62-9.39,18.66-20.18,31.34-44.96,46.65-67.67-5.82,19.17-14.65,40.92-14.65,64.83,0,26.04,19.23,49.62,47.43,18.05,22.4-25.08,33.49-44.27,48.36-77.13-6.33,24.3-8.64,41.29-8.64,41.29-3.77,35.06-6,120.39,49.22,110.64,43.79-7.73,76.74-66.01,94.32-103.5,0,0,2.7-6.26,19.34-45.83,48.74-96.86,72.81-97.94,72.81-97.94,11.26,0-.16,38.74-3.52,48.9-14.97,45.34-37.58,87.73-54.87,132.02,14.58-11.49,34.6-8.03,34.6-8.03,13.45-33.65,26.45-61.92,44.9-93.03,14.78-24.92,37.33-58.47,62.34-73.11,45.21-26.48,37.4,38.85,32.51,64.48-3.2,16.74-8.94,34.53-14.56,50.61,0,0-2.47,7.52-6.56,18.47-52.53,13.31-106.44,53.49-128.41,104.15-13.67,31.52-20.41,86.06,31.3,71.25,27.72-7.94,56.76-38.36,74.23-60.97,25.83-33.42,43.59-73.06,55.49-113.76,59.98-.02,91.46,34.26,96.81,72.52,10.93,78.3-67.25,128.64-135.9,104.58-16.65-5.84-17.14-7.26-22.78-10.56,64.67,46.74,173.46,7.35,170.31-81.16ZM311.41,73.74c10.59-17.12,35.91-54.78,56.39-58.09,33.88-5.47,20.64,46.87,13.13,64.33-20.1,46.75-68.75,88.12-123.54,103.59,4.64-12.2,10.97-27.71,18.02-41.8,16.88-33.73,23-47.03,36-68.04ZM562.57,185.02c-12.37,50.8-36.3,116.1-62.48,160.99-8.85,15.17-25.85,43.82-44.62,44.68-34.48,1.58-27.8-51.94-24.12-74.14,9.8-59.29,48.42-166.65,85.3-213.35,5.83-7.38,13-16.42,22.58-18.41,47.8-9.93,29.27,75.89,23.35,100.22ZM688.59,400.66c-10.59,17.12-35.91,54.78-56.39,58.09-33.88,5.47-20.64-46.87-13.13-64.33,20.1-46.75,68.75-88.12,123.54-103.59-4.64,12.2-10.97,27.71-18.02,41.8-16.88,33.73-23,47.03-36,68.04Z"/>
  <path d="M127.61,526.67v-2.67c11.1,0,15.82-9.21,15.82-17.21h2.6c0,8,5.19,17.21,15.58,17.21v2.67c-10.39,0-15.58,8.48-15.58,16.73h-2.6c0-8.24-4.72-16.73-15.82-16.73Z"/>
  <path d="M0,665.35v-2.87c6.45-1.99,8.61-7.07,8.61-25.19v-98.54c0-18.12-2.15-23.2-8.61-25.19v-2.87h50.35c33.14,0,46.69,11.27,46.69,29.16,0,15.02-9.47,28.72-34,33.36,35.07,1.77,50.57,19.66,50.78,41.32.43,24.74-17.65,50.81-69.93,50.81H0ZM77.46,543.84c0-18.34-12.69-29.83-34.86-29.83h-16.35v58.77h20.01c21.3,0,31.2-12.81,31.2-28.94ZM94.25,620.06c0-25.41-13.77-43.96-46.05-43.96h-21.95v66.72c0,15.91,1.94,19.22,11.19,19.22h8.39c35.07,0,48.41-17.45,48.41-41.98Z"/>
  <path d="M127.61,662.48c6.67-1.99,8.61-7.07,8.61-25.19v-50.82c0-15.46-2.58-17.67-8.61-20.32v-2.43l23.67-10.6,1.72,1.55v82.63c0,18.12,2.15,23.2,8.61,25.19v2.87h-34v-2.87Z"/>
  <path d="M176.89,611.66c0-34.47,26.9-58.33,56.37-58.33,26.68,0,56.16,16.79,56.16,56.12s-30.77,58.1-56.16,58.1c-27.33,0-56.37-17.45-56.37-55.9ZM273.08,622.49c0-28.5-19.58-66.5-47.77-64.95-21.95.88-31.85,19.44-31.85,41.53,0,28.06,17.65,63.85,46.26,63.85,23.02,0,33.35-19,33.35-40.43Z"/>
  <path d="M308.38,651.87l-1.08-30.71,2.37-.44c8.39,23.2,24.74,42.86,54.65,42.86,17.22,0,32.06-11.49,32.06-29.38,0-22.09-26.47-32.26-44.54-39.77-25.39-10.38-41.53-19.66-41.53-43.08,0-25.85,20.87-42.2,52.5-42.2,19.58,0,33.57,5.52,41.96,10.16l.86,25.63-2.15.66c-7.96-19.22-23.02-32.92-47.55-32.92-17.43,0-32.28,10.38-32.28,29.16,0,20.77,22.16,29.16,40.45,36.9,23.88,9.72,46.26,19.44,46.26,44.41,0,27.62-24.96,44.41-50.35,44.41-22.59,0-41.53-8.17-51.64-15.69Z"/>
  <path d="M409.09,701.8c0-4.2,5.38-12.15,13.34-12.15,5.59,0,17.21,3.31,27.11,5.08,7.53-6.63,14.2-17.45,19.58-28.94l-35.29-85.06c-6.67-16.57-12.05-20.99-16.57-22.98v-2.87h32.49v2.87c-6.45,1.99-4.73,6.41,2.15,22.98l26.47,63.19,26.47-63.19c6.02-14.36,5.59-21.43-1.94-22.98v-2.87h23.88v2.87c-6.02,1.99-11.62,6.41-18.72,22.98l-33.35,79.09c-18.29,43.3-37.23,47.94-51,48.16-8.39.22-14.63-2.65-14.63-6.19Z"/>
  <path d="M535.2,657.17l-1.94-26.73,1.94-.44c9.04,20.99,24.31,33.58,43.9,33.8,13.34,0,23.24-8.18,23.24-20.55,0-15.91-15.06-20.99-31.63-26.51-20.44-6.63-35.07-12.37-35.07-32.48,0-17.45,14.2-30.93,39.16-30.93,13.99,0,26.68,3.09,33.35,5.96l.86,22.53-2.15.44c-6.89-15.91-20.66-26.07-35.94-26.07s-24.1,7.29-24.1,18.56c0,13.92,13.77,19.66,30.77,25.41,16.35,5.52,36.15,10.6,36.15,32.7,0,18.56-13.56,34.24-39.38,34.46-17.22,0-32.06-5.3-39.16-10.16Z"/>
  <path d="M640.43,635.96v-77.99h-13.77v-3.09l27.54-27.18h3.01v27.18h32.71l-1.07,3.09h-31.63v77.99c0,15.02,6.03,20.77,15.28,20.77,6.02,0,13.56-2.87,20.66-11.49l1.94,1.99c-9.25,10.82-20.23,20.32-32.92,20.32-13.56,0-21.73-8.62-21.73-31.59Z"/>
  <path d="M699.61,613.43c0-36.01,26.47-60.09,56.59-60.09,27.11,0,42.82,18.12,43.47,39.1h-84.13c-.43,3.31-.65,6.63-.65,10.16,0,30.27,18.29,51.03,46.26,51.03,16.57,0,28.4-7.73,38.3-19.22l1.94,1.99c-10.97,15.47-27.76,31.15-50.78,31.15s-50.99-17.67-50.99-54.13ZM782.45,589.57c-2.15-14.8-13.77-32.26-33.35-32.26-18.29-.22-29.48,13.7-32.92,32.26h66.28Z"/>
  <path d="M814.3,662.48c6.67-1.99,8.61-7.07,8.61-25.19v-50.82c0-15.46-2.8-17.67-8.61-20.32v-2.43l23.45-10.6,1.94,1.55v18.78c12.91-10.61,29.05-20.1,44.54-20.1s26.03,6.63,29.91,20.77c12.91-10.61,29.48-20.77,45.62-20.77,20.87,0,31.63,11.71,31.63,36.67v47.28c0,18.12,2.15,23.2,8.61,25.19v2.87h-34v-2.87c6.67-1.99,8.61-7.07,8.61-25.19v-43.3c0-21.87-7.75-33.36-24.53-33.36-12.27,0-23.45,6.85-35.29,16.35.86,3.76,1.29,8.18,1.29,13.04v47.28c0,18.12,1.94,23.2,8.61,25.19v2.87h-34v-2.87c6.45-1.99,8.61-7.07,8.61-25.19v-43.3c0-21.87-7.96-33.36-24.53-33.36-12.27,0-23.45,6.85-35.07,15.91v60.76c0,18.12,2.15,23.2,8.61,25.19v2.87h-34v-2.87Z"/>
</svg>