<?xml version="1.0" encoding="UTF-8"?>
<svg id="Layer_1" xmlns="http://www.w3.org/2000/svg" version="1.1" viewBox="0 0 1000 800">
  <!-- Generator: Adobe Illustrator 29.8.5, SVG Export Plug-In . SVG Version: 2.1.1 Build 2)  -->
  <g>
    <path d="M879.4,369.1c-1.6-44.1-36.9-87.7-106.4-87.7,24.6-94.3.9-122.6.9-122.6-19.5-34.4-52.4-11.7-71.8,9.3-18.5,20-31,44.5-46.1,66.9,5.8-19,14.5-40.4,14.5-64.1s-19-49.1-46.9-17.8c-21.6,24.2-32.6,42.8-46.8,73.9,2.2-8.7,4.2-18.1,5.8-28.1,7.5-44.8,7.6-153-66.6-111.1-48.6,27.4-74.1,100.2-89.6,134.5-50.1,101.3-75.2,101.2-75.2,101.2-11.1,0,.2-38.3,3.5-48.3,14.8-44.8,37.2-86.7,54.3-130.5-14.4,11.4-34.2,7.9-34.2,7.9-13.3,33.3-26.2,61.2-44.4,92-14.6,24.6-36.9,57.8-61.7,72.3-44.7,26.2-37-38.4-32.2-63.7,3.2-16.6,8.8-34.1,14.4-50,0,0,2.4-7.4,6.5-18.3,52-13.2,105.3-52.9,127-103,13.5-31.2,20.2-85.1-31-70.4-27.4,7.8-56.1,37.9-73.4,60.3-25.6,33-43.1,72.2-54.9,112.5-59.3,0-90.5-33.9-95.8-71.7C118.4,35.1,195.8-14.6,263.7,9.2c16.5,5.8,17,7.2,22.5,10.4-64-46.2-171.6-7.3-168.5,80.2,1.6,44.1,36.9,87.7,106.4,87.7-24.6,94.3-.9,122.6-.9,122.6,19.5,34.4,52.4,11.7,71.8-9.3,18.5-20,31-44.5,46.1-66.9-5.8,19-14.5,40.4-14.5,64.1s19,49.1,46.9,17.8c22.2-24.8,33.1-43.8,47.8-76.2-6.3,24-8.5,40.8-8.5,40.8-3.7,34.7-5.9,119,48.7,109.4,43.3-7.6,75.9-65.3,93.3-102.3,0,0,2.7-6.2,19.1-45.3,48.2-95.8,72-96.8,72-96.8,11.1,0-.2,38.3-3.5,48.3-14.8,44.8-37.2,86.7-54.3,130.5,14.4-11.4,34.2-7.9,34.2-7.9,13.3-33.3,26.2-61.2,44.4-92,14.6-24.6,36.9-57.8,61.7-72.3,44.7-26.2,37,38.4,32.2,63.7-3.2,16.6-8.8,34.1-14.4,50,0,0-2.4,7.4-6.5,18.3-52,13.2-105.3,52.9-127,103-13.5,31.2-20.2,85.1,31,70.4,27.4-7.8,56.1-37.9,73.4-60.3,25.6-33,43.1-72.2,54.9-112.5,59.3,0,90.5,33.9,95.8,71.7,10.8,77.4-66.5,127.2-134.4,103.4-16.5-5.8-17-7.2-22.5-10.4,64,46.2,171.6,7.3,168.5-80.2ZM312,72.9c10.5-16.9,35.5-54.2,55.8-57.4,33.5-5.4,20.4,46.3,13,63.6-19.9,46.2-68,87.1-122.2,102.4,4.6-12.1,10.8-27.4,17.8-41.3,16.7-33.3,22.8-46.5,35.6-67.3ZM560.4,182.9c-12.2,50.2-35.9,114.8-61.8,159.2-8.8,15-25.6,43.3-44.1,44.2-34.1,1.6-27.5-51.3-23.9-73.3,9.7-58.6,47.9-164.7,84.4-210.9,5.8-7.3,12.9-16.2,22.3-18.2,47.3-9.8,29,75,23.1,99.1ZM685.1,396.1c-10.5,16.9-35.5,54.2-55.8,57.4-33.5,5.4-20.4-46.3-13-63.6,19.9-46.2,68-87.1,122.2-102.4-4.6,12.1-10.8,27.4-17.8,41.3-16.7,33.3-22.8,46.5-35.6,67.3Z"/>
    <g>
      <path d="M130.2,520.7v-2.6c11,0,15.6-9.1,15.6-17h2.6c0,7.9,5.1,17,15.4,17v2.6c-10.3,0-15.4,8.4-15.4,16.5h-2.6c0-8.1-4.7-16.5-15.6-16.5Z"/>
      <path d="M4,657.8v-2.8c6.4-2,8.5-7,8.5-24.9v-97.4c0-17.9-2.1-22.9-8.5-24.9v-2.8h49.8c32.8,0,46.2,11.1,46.2,28.8s-9.4,28.4-33.6,33c34.7,1.7,50,19.4,50.2,40.8.4,24.5-17.5,50.2-69.2,50.2H4ZM80.6,537.6c0-18.1-12.6-29.5-34.5-29.5h-16.2v58.1h19.8c21.1,0,30.9-12.7,30.9-28.6ZM97.2,613c0-25.1-13.6-43.5-45.6-43.5h-21.7v66c0,15.7,1.9,19,11.1,19h8.3c34.7,0,47.9-17.3,47.9-41.5Z"/>
      <path d="M130.2,654.9c6.6-2,8.5-7,8.5-24.9v-50.2c0-15.3-2.6-17.5-8.5-20.1v-2.4l23.4-10.5,1.7,1.5v81.7c0,17.9,2.1,22.9,8.5,24.9v2.8h-33.6v-2.8Z"/>
      <path d="M178.9,604.7c0-34.1,26.6-57.7,55.8-57.7s55.6,16.6,55.6,55.5-30.4,57.4-55.6,57.4-55.8-17.3-55.8-55.3ZM274.1,615.4c0-28.2-19.4-65.7-47.3-64.2-21.7.9-31.5,19.2-31.5,41.1s17.5,63.1,45.8,63.1,33-18.8,33-40Z"/>
      <path d="M309,644.4l-1.1-30.4,2.3-.4c8.3,22.9,24.5,42.4,54.1,42.4s31.7-11.4,31.7-29-26.2-31.9-44.1-39.3c-25.1-10.3-41.1-19.4-41.1-42.6s20.6-41.7,51.9-41.7,33.2,5.5,41.5,10l.9,25.3-2.1.7c-7.9-19-22.8-32.5-47-32.5s-31.9,10.3-31.9,28.8,21.9,28.8,40,36.5c23.6,9.6,45.8,19.2,45.8,43.9s-24.7,43.9-49.8,43.9-41.1-8.1-51.1-15.5Z"/>
      <path d="M408.6,693.8c0-4.2,5.3-12,13.2-12s17,3.3,26.8,5c7.5-6.6,14-17.3,19.4-28.6l-34.9-84.1c-6.6-16.4-11.9-20.7-16.4-22.7v-2.8h32.1v2.8c-6.4,2-4.7,6.3,2.1,22.7l26.2,62.5,26.2-62.5c6-14.2,5.5-21.2-1.9-22.7v-2.8h23.6v2.8c-6,2-11.5,6.3-18.5,22.7l-33,78.2c-18.1,42.8-36.8,47.4-50.4,47.6-8.3.2-14.5-2.6-14.5-6.1Z"/>
      <path d="M533.4,649.7l-1.9-26.4,1.9-.4c8.9,20.7,24.1,33.2,43.4,33.4,13.2,0,23-8.1,23-20.3s-14.9-20.7-31.3-26.2c-20.2-6.6-34.7-12.2-34.7-32.1s14-30.6,38.7-30.6,26.4,3.1,33,5.9l.9,22.3-2.1.4c-6.8-15.7-20.4-25.8-35.5-25.8s-23.8,7.2-23.8,18.3,13.6,19.4,30.4,25.1c16.2,5.5,35.8,10.5,35.8,32.3s-13.4,33.9-39,34.1c-17,0-31.7-5.2-38.7-10Z"/>
      <path d="M637.5,628.7v-77.1h-13.6v-3.1l27.2-26.9h3v26.9h32.4l-1.1,3.1h-31.3v77.1c0,14.9,6,20.5,15.1,20.5s13.4-2.8,20.4-11.4l1.9,2c-9.2,10.7-20,20.1-32.6,20.1s-21.5-8.5-21.5-31.2Z"/>
      <path d="M696,606.4c0-35.6,26.2-59.4,56-59.4s42.4,17.9,43,38.7h-83.2c-.4,3.3-.6,6.6-.6,10,0,29.9,18.1,50.5,45.8,50.5s28.1-7.6,37.9-19l1.9,2c-10.9,15.3-27.5,30.8-50.2,30.8s-50.4-17.5-50.4-53.5ZM777.9,582.8c-2.1-14.6-13.6-31.9-33-31.9-18.1-.2-29.2,13.5-32.6,31.9h65.6Z"/>
      <path d="M809.5,654.9c6.6-2,8.5-7,8.5-24.9v-50.2c0-15.3-2.8-17.5-8.5-20.1v-2.4l23.2-10.5,1.9,1.5v18.6c12.8-10.5,28.7-19.9,44.1-19.9s25.8,6.6,29.6,20.5c12.8-10.5,29.2-20.5,45.1-20.5s31.3,11.6,31.3,36.3v46.7c0,17.9,2.1,22.9,8.5,24.9v2.8h-33.6v-2.8c6.6-2,8.5-7,8.5-24.9v-42.8c0-21.6-7.7-33-24.3-33s-23.2,6.8-34.9,16.2c.9,3.7,1.3,8.1,1.3,12.9v46.7c0,17.9,1.9,22.9,8.5,24.9v2.8h-33.6v-2.8c6.4-2,8.5-7,8.5-24.9v-42.8c0-21.6-7.9-33-24.3-33s-23.2,6.8-34.7,15.7v60.1c0,17.9,2.1,22.9,8.5,24.9v2.8h-33.6v-2.8Z"/>
    </g>
  </g>
  <g>
    <path d="M14.3,798.2c2.4-.7,3.1-2.5,3.1-8.9v-43.4h-3.8c-7,0-10.1,1.9-12.7,7.5l-.9-.2.5-8.6h40.2l.5,8.6-.9.2c-2.7-5.6-5.7-7.5-12.7-7.5h-3.7v43.4c0,6.4.7,8.2,3.1,8.9v1h-12.7v-1Z"/>
    <path d="M62,798.2c2.3-.7,3.1-2.5,3.1-8.9v-34.8c0-6.4-.8-8.2-3.1-8.9v-1h12.6v1c-2.4.7-3.1,2.5-3.1,8.9v34.8c0,6.4.7,8.2,3.1,8.9v1h-12.6v-1Z"/>
    <path d="M98.2,799.2v-1c2.3-.7,3.1-2.5,3.1-8.9v-34.8c0-6.4-.8-8.2-3.1-8.9v-1h36.3l.9,10.1-.9.2c-2.7-6.9-7.3-9.2-15.3-9.2h-11.5v23.6h10c8.9,0,11.1-1.8,12.1-5.3h.9v11.8h-.9c-.9-3.5-3.2-5.3-12.1-5.3h-10v23.9c0,2.3,1.2,3.5,3.5,3.5h10.1c7.5,0,12.2-2.1,15.1-9.4l.9.2-.6,10.4h-38.5Z"/>
    <path d="M159.7,798.2c2.4-.7,3.1-2.5,3.1-8.9v-31.7c0-8.9-1.6-11.1-4.8-12v-1h9.4l20.4,33.6,20-33.6h8.8v1c-3.1.9-4.8,3.1-4.8,12v31.7c0,6.4.7,8.2,3.1,8.9v1h-12.6v-1c2.3-.7,3.1-2.5,3.1-8.9v-38.4l-19.8,33.5h-1.5l-20-32.8v34.6c0,8.9,1.9,11.1,5.3,12v1h-9.8v-1Z"/>
    <path d="M240.2,798.2c2.3-.7,3.1-2.5,3.1-8.9v-34.8c0-6.4-.8-8.2-3.1-8.9v-1h15.8c16.1,0,21.3,7.8,21.3,15.4s-7.6,17.6-22.1,17.6h-5.5v11.7c0,6.4.7,8.2,3.1,8.9v1h-12.6v-1ZM270.5,761.8c0-8.3-4.9-16-17.5-16s-2.3,0-3.3.2v30.5h5.4c10,0,15.4-5.5,15.4-14.7Z"/>
    <path d="M297.5,771.8c0-16,11.2-27.8,27.8-27.8s27.6,9,27.6,28.2-14.5,27.8-27.6,27.8-27.8-8.8-27.8-28.2ZM346.8,777.3c-.5-16.3-10.8-31.5-24.7-31.5s-18.8,8.8-18.3,21.5c.5,15.7,10.8,30.7,24.8,30.7s18.6-9,18.2-20.7Z"/>
    <path d="M408.5,799.2v-1c2.3-.7,3.1-2.5,3.1-8.9v-34.8c0-6.4-.8-8.2-3.1-8.9v-1h18.3c12,0,16.9,4,16.9,10.3s-3.4,10.1-12.3,11.8c12.7.6,18.3,6.9,18.4,14.6.2,8.7-6.4,17.9-25.3,17.9h-15.9ZM436.5,756.3c0-6.5-4.6-10.5-12.6-10.5h-5.9v20.7h7.2c7.7,0,11.3-4.5,11.3-10.2ZM442.6,783.2c0-9-5-15.5-16.7-15.5h-7.9v23.6c0,5.6.7,6.8,4.1,6.8h3c12.7,0,17.5-6.2,17.5-14.8Z"/>
    <path d="M471.8,798.2c2.3-.7,3.1-2.5,3.1-8.9v-34.8c0-6.4-.8-8.2-3.1-8.9v-1h12.6v1c-2.4.7-3.1,2.5-3.1,8.9v34.8c0,6.4.7,8.2,3.1,8.9v1h-12.6v-1Z"/>
    <path d="M508,799.2v-1c2.3-.7,3.1-2.5,3.1-8.9v-34.8c0-6.4-.8-8.2-3.1-8.9v-1h36.3l.9,10.1-.9.2c-2.7-6.9-7.3-9.2-15.3-9.2h-11.5v23.6h10c8.9,0,11.2-1.8,12.1-5.3h.9v11.8h-.9c-.9-3.5-3.2-5.3-12.1-5.3h-10v23.9c0,2.3,1.2,3.5,3.5,3.5h10.1c7.5,0,12.2-2.1,15-9.4l.9.2-.6,10.4h-38.4Z"/>
    <path d="M574,752v34.2c0,8.9,1.9,11.1,5.4,12v1h-9.8v-1c2.3-.7,3.1-2.5,3.1-8.9v-34.8c0-6.4-.9-8.2-4.1-8.9v-1h7.6l34.1,44.1v-31.1c0-8.9-1.9-11.1-5.4-12v-1h9.8v1c-2.4.7-3.1,2.5-3.1,8.9v45.3h-1l-36.7-47.8Z"/>
    <path d="M665.3,745.6v-1h12.2v1c-2.3.7-1.8,2.3.5,8.2l15.1,38.6,14.8-38.5c1.9-5.1,1.6-7.7-1-8.3v-1h8.7v1c-2.1.7-4.1,2.3-6.3,8.2l-17.7,45.8h-2.2l-18.3-45.8c-2.3-5.9-4.2-7.5-5.8-8.2Z"/>
    <path d="M734.8,798.2c2.3-.7,3.1-2.5,3.1-8.9v-34.8c0-6.4-.8-8.2-3.1-8.9v-1h12.6v1c-2.4.7-3.1,2.5-3.1,8.9v34.8c0,6.4.7,8.2,3.1,8.9v1h-12.6v-1Z"/>
    <path d="M766.7,745.6v-1h12.2v1c-2.3.7-1.8,2.3.5,8.2l15,38.6,14.8-38.5c2-5.1,1.6-7.7-1-8.3v-1h8.7v1c-2.1.7-4.1,2.3-6.3,8.2l-17.7,45.8h-2.2l-18.2-45.8c-2.3-5.9-4.2-7.5-5.9-8.2Z"/>
    <path d="M836.2,798.2c2.3-.7,3.1-2.5,3.1-8.9v-34.8c0-6.4-.8-8.2-3.1-8.9v-1h12.6v1c-2.4.7-3.1,2.5-3.1,8.9v34.8c0,6.4.7,8.2,3.1,8.9v1h-12.6v-1Z"/>
    <path d="M872.4,799.2v-1c2.3-.7,3.1-2.5,3.1-8.9v-34.8c0-6.4-.8-8.2-3.1-8.9v-1h18.6c21.4,0,29.9,13.6,29.9,26.3,0,16.5-11,28.3-28.2,28.3h-20.4ZM913.9,774c0-15.6-9.3-28.2-26.7-28.2h-5.3v46.6c0,3.7.8,5.7,5.1,5.7h5.7c13.7,0,21.2-7.7,21.2-24Z"/>
    <path d="M944.6,771.8c0-16,11.2-27.8,27.8-27.8s27.6,9,27.6,28.2-14.5,27.8-27.6,27.8-27.8-8.8-27.8-28.2ZM993.9,777.3c-.5-16.3-10.8-31.5-24.7-31.5s-18.8,8.8-18.3,21.5c.5,15.7,10.8,30.7,24.8,30.7s18.6-9,18.2-20.7Z"/>
  </g>
</svg>