<?xml version="1.0" encoding="UTF-8"?>
<svg xmlns="http://www.w3.org/2000/svg" version="1.1" viewBox="0 0 100 100" width="100" height="100">
  <defs>
    <style>
    path {
      fill: #000000;
    }
    @media (prefers-color-scheme: dark) {
      path {
        fill: #ffffff;
      }
    }
    </style>
  </defs>
  <path d="M26.4,25.59c1.47.11,2.94.3,4.42.54,8.62,2.2,14.65,9.32,18.78,17.07l-3.59,5.92c-1.88-3.34-3.77-6.74-6.15-9.74-4.82-6.07-10.81-8.66-18.47-7.72-19.98,2.45-20.5,33.29-.56,37.12,15.55,2.99,21.25-11.12,27.83-22.32.97-1.65,2.24-3.39,3.12-5.05,1.1-2.07.11-3.56,2.23-5.36,1.2-1.02,2.44-1.45,3.76-2.16,1.73-.93,2.88-2.82,4.8-.66,1.3,1.46-.17,2.93-.65,4.35-.68,2.01-.99,4.83-2.98,6-.9.53-1.88.39-2.6,1.14-1.76,1.84-2.96,4.92-4.22,7.14-1.42,2.52-2.84,5.05-4.38,7.5-2.99,4.74-6.53,9.31-11.3,12.22-7.65,4.68-18.29,4.59-25.69-.56-2.49-1.74-4.66-3.96-6.38-6.51s-2.99-5.39-3.68-8.41c-.82-3.62-.94-7.57-.22-11.21.58-2.93,1.8-5.93,3.41-8.48,1.63-2.58,3.71-4.86,6.13-6.66,4.99-3.72,10.6-4.58,16.38-4.16Z"/>
  <path d="M89.49,70.56c4.59-3.68,8.3-8.67,9.8-14.58.84-3.27.88-6.8.43-10.13-.43-3.19-1.55-6.29-3.16-9.03-.87-1.48-1.89-2.86-3.04-4.12-2.29-2.52-5.09-4.56-8.2-5.83,0,0-13.11-6.69-22.34,5.3,2.85-2.3,6.81-4.47,10.48-4.74,9.99-.74,19.12,5.74,21.57,15.83,3.63,14.96-8.5,29.3-23.41,25.55-8.66-2.18-13.63-10.63-17.61-18.16l-.2.06-3.48,5.96c3.91,7.34,9.48,14.46,17.46,17.12,0,0,12.87,3.88,21.71-3.22Z"/>
</svg>