<?xml version="1.0" encoding="UTF-8"?>
<svg xmlns="http://www.w3.org/2000/svg" version="1.1" viewBox="0 0 100 100" width="100" height="100">
  <defs>
    <style>
      path { fill: #000; }
      @media (prefers-color-scheme: dark) {
        path { fill: #fff; }
      }
    </style>
  </defs>
  <path d="M76.89,7.09C63.38,0,45.91-1.07,31.21,3.64,16.98,8.24,7.33,18.62,3.17,33.52-.9,48.18.16,64.87,6.77,77.39c5.73,10.94,16.99,18.73,29.1,21.08,1.59.31,4.88.85,8.31.8,4.08-.07,8.33-.96,9.95-4.35.76-1.59.8-3.21.14-4.7-1.49-3.38-6.04-5.03-9.34-6.19-.65-.23-1.23-.43-1.68-.62-10.33-4.24-22.68-12.19-26.33-28.52-4.33-19.43,5.9-38.74,25.85-43.43,10.69-2.67,22.08-1.47,31.28,3.78,9.32,5.28,15.24,14.63,17.12,25.85,3.25,20.37-5.49,39.43-24.13,45.03-.79.25-1.68.46-2.63.67-1.15.26-2.34.54-3.43.93-2.77,1-2.7,2.85-2.61,3.39.11.67.66,2.24,3.37,2.57,4.04.49,9.29-.75,12.79-2.09,12.23-4.58,20.65-15.72,23.45-29.85,4.19-22.41-2.41-45.13-21.09-54.64Z"/>
</svg>