<svg xmlns="http://www.w3.org/2000/svg" version="1.1" xmlns:xlink="http://www.w3.org/1999/xlink" width="1000" height="1000"><g clip-path="url(#SvgjsClipPath1177)"><rect width="1000" height="1000" fill="#ffffff"></rect><g transform="matrix(10,0,0,10,0,0)"><svg xmlns="http://www.w3.org/2000/svg" version="1.1" xmlns:xlink="http://www.w3.org/1999/xlink" width="100" height="100"><svg id="eon-logo" xmlns="http://www.w3.org/2000/svg" version="1.1" viewBox="0 0 100 100">
  <!-- Generator: Adobe Illustrator 29.8.4, SVG Export Plug-In . SVG Version: 2.1.1 Build 6)  -->
  <path d="M99.99,67.23c-.21-5.65-4.85-11.22-13.96-11.22,3.23-12.07.12-15.68.12-15.68-2.55-4.4-6.88-1.5-9.43,1.19-2.42,2.55-4.07,5.69-6.06,8.56.76-2.42,1.9-5.17,1.9-8.2,0-3.29-2.5-6.28-6.16-2.28-2.84,3.1-4.28,5.48-6.14,9.46.28-1.11.55-2.32.76-3.59.98-5.73,1-19.57-8.75-14.22-6.39,3.51-9.73,12.82-11.77,17.21-6.58,12.96-9.87,12.95-9.87,12.95-1.46,0,.02-4.9.46-6.18,1.94-5.73,4.88-11.1,7.13-16.7-1.89,1.45-4.49,1.02-4.49,1.02-1.75,4.26-3.43,7.83-5.83,11.77-1.92,3.15-4.85,7.4-8.09,9.25-5.87,3.35-4.86-4.91-4.22-8.15.42-2.12,1.16-4.37,1.89-6.4,0,0,.32-.95.85-2.34,6.82-1.68,13.82-6.76,16.68-13.17,1.78-3.99,2.65-10.88-4.07-9.01-3.6,1-7.37,4.85-9.64,7.71-3.35,4.23-5.66,9.24-7.21,14.39-7.79,0-11.88-4.33-12.57-9.17C.1,24.5,10.25,18.13,19.17,21.17c2.16.74,2.23.92,2.96,1.34C13.73,16.6-.4,21.58,0,32.77c.21,5.65,4.85,11.22,13.96,11.22-3.23,12.07-.12,15.68-.12,15.68,2.55,4.4,6.88,1.5,9.43-1.19,2.42-2.55,4.07-5.69,6.06-8.56-.76,2.42-1.9,5.17-1.9,8.2,0,3.29,2.5,6.28,6.16,2.28,2.91-3.17,4.35-5.6,6.28-9.75-.82,3.07-1.12,5.22-1.12,5.22-.49,4.43-.78,15.23,6.39,13.99,5.69-.98,9.97-8.35,12.25-13.09,0,0,.35-.79,2.51-5.8,6.33-12.25,9.45-12.39,9.45-12.39,1.46,0-.02,4.9-.46,6.18-1.94,5.73-4.88,11.1-7.13,16.7,1.89-1.45,4.49-1.02,4.49-1.02,1.75-4.26,3.43-7.83,5.83-11.77,1.92-3.15,4.85-7.4,8.09-9.25,5.87-3.35,4.86,4.91,4.22,8.15-.42,2.12-1.16,4.37-1.89,6.4,0,0-.32.95-.85,2.34-6.82,1.68-13.82,6.76-16.68,13.17-1.78,3.99-2.65,10.88,4.07,9.01,3.6-1,7.37-4.85,9.64-7.71,3.35-4.23,5.66-9.24,7.21-14.39,7.79,0,11.88,4.33,12.57,9.17,1.42,9.9-8.73,16.27-17.65,13.23-2.16-.74-2.23-.92-2.96-1.34,8.4,5.91,22.53.93,22.12-10.26ZM25.51,29.33c1.38-2.16,4.66-6.93,7.32-7.35,4.4-.69,2.68,5.93,1.71,8.14-2.61,5.91-8.93,11.15-16.04,13.1.6-1.54,1.42-3.51,2.34-5.29,2.19-4.27,2.99-5.95,4.67-8.61ZM58.13,43.4c-1.61,6.42-4.71,14.68-8.11,20.36-1.15,1.92-3.36,5.54-5.79,5.65-4.48.2-3.61-6.57-3.13-9.38,1.27-7.5,6.29-21.08,11.08-26.98.76-.93,1.69-2.08,2.93-2.33,6.21-1.26,3.8,9.6,3.03,12.68ZM74.49,70.67c-1.38,2.16-4.66,6.93-7.32,7.35-4.4.69-2.68-5.93-1.71-8.14,2.61-5.91,8.93-11.15,16.04-13.1-.6,1.54-1.42,3.51-2.34,5.29-2.19,4.27-2.99,5.95-4.67,8.61Z"></path>
</svg></svg></g></g><defs><clipPath id="SvgjsClipPath1177"><rect width="1000" height="1000" x="0" y="0" rx="150" ry="150"></rect></clipPath></defs></svg>