<?xml version="1.0" encoding="UTF-8"?>
<svg xmlns="http://www.w3.org/2000/svg" version="1.1" viewBox="0 0 100 100" width="100" height="100">
  <defs><style>path { fill: black; }@media (prefers-color-scheme: dark) { path { fill: white; } }</style></defs>  <path d="M98.44,41.49c-3.66-10.72-14.8-17.61-26.08-16.28-11.52,1.06-18.69,9.52-22.92,18.97-5.63,12.29-10.35,26.31-26.66,24.86-13.48-1.18-20.7-16.85-14.9-28.02,3.91-8.2,15.53-12.32,23.55-9.05,1.51.65,2.67,1.41,3.74,2.51.32.34.66.74.63,1.09.29,3.84,3,4.86,6.12,6.17.98.5,1.71,1.33,2.78,1.7,1.53.38,2.74-.35,3.51-1.57.77-1.03.21-2.79-.55-3.64-.66-.89-1.17-2.04-1.54-3.16-.76-2.58-2.98-3.85-5.07-4.3-.91-.34-1.78-1.2-2.55-1.72-13.32-9.15-32.9-1.93-37.38,13.51-5.03,16.3,7.58,33.39,25.14,32.4,9.74-.39,17.89-6.55,22.28-15.21,4.37-7.75,6.76-16.94,12.97-23.44,8.66-8.8,25-6.53,30.37,4.79,9.05,17.72-11.35,38.05-30.69,22.65-2.74-2.32-4.59-4.83-6.55-7.89-.74-1.07-2.38-.34-2.03.92,4.73,14.99,17.73,19.26,24.97,18.04,16.07-1.36,26.45-18.28,20.91-33.16l-.06-.16Z"/>
</svg>