<?xml version="1.0" encoding="UTF-8"?>
<svg xmlns="http://www.w3.org/2000/svg" version="1.1" viewBox="0 0 122 100" width="122" height="100"><path d="M3.8,95.08v-.32c.74-.22.98-.79.98-2.81v-10.98c0-2.02-.25-2.58-.98-2.81v-.32h5.76c3.79,0,5.34,1.26,5.34,3.25,0,1.67-1.08,3.2-3.89,3.72,4.01.2,5.79,2.19,5.81,4.6.05,2.76-2.02,5.66-8,5.66H3.8ZM12.66,81.54c0-2.04-1.45-3.32-3.99-3.32h-1.87v6.55h2.29c2.44,0,3.57-1.43,3.57-3.22ZM14.58,90.03c0-2.83-1.58-4.9-5.27-4.9h-2.51v7.43c0,1.77.22,2.14,1.28,2.14h.96c4.01,0,5.54-1.94,5.54-4.68Z M18.33,79.91v-.28c1.22,0,1.73-.98,1.73-1.84h.28c0,.85.57,1.84,1.71,1.84v.28c-1.14,0-1.71.91-1.71,1.78h-.28c0-.88-.52-1.78-1.73-1.78ZM18.4,94.76c.76-.22.98-.79.98-2.81v-5.66c0-1.72-.3-1.97-.98-2.26v-.27l2.71-1.18.2.17v9.21c0,2.02.25,2.58.98,2.81v.32h-3.89v-.32Z M24.04,89.1c0-3.84,3.08-6.5,6.45-6.5,3.05,0,6.43,1.87,6.43,6.25s-3.52,6.47-6.43,6.47c-3.13,0-6.45-1.94-6.45-6.23ZM35.04,90.31c0-3.18-2.24-7.41-5.46-7.24-2.51.1-3.64,2.17-3.64,4.63,0,3.13,2.02,7.11,5.29,7.11,2.63,0,3.82-2.12,3.82-4.5Z M39.08,93.58l-.12-3.42.27-.05c.96,2.58,2.83,4.78,6.25,4.78,1.97,0,3.67-1.28,3.67-3.27,0-2.46-3.03-3.59-5.1-4.43-2.9-1.16-4.75-2.19-4.75-4.8,0-2.88,2.39-4.7,6.01-4.7,2.24,0,3.84.62,4.8,1.13l.1,2.86-.25.07c-.91-2.14-2.63-3.67-5.44-3.67-1.99,0-3.69,1.16-3.69,3.25,0,2.31,2.54,3.25,4.63,4.11,2.73,1.08,5.29,2.17,5.29,4.95,0,3.08-2.86,4.95-5.76,4.95-2.58,0-4.75-.91-5.91-1.75Z M50.6,99.14c0-.47.62-1.35,1.53-1.35.64,0,1.97.37,3.1.57.86-.74,1.62-1.94,2.24-3.22l-4.04-9.48c-.76-1.85-1.38-2.34-1.9-2.56v-.32h3.72v.32c-.74.22-.54.71.25,2.56l3.03,7.04,3.03-7.04c.69-1.6.64-2.39-.22-2.56v-.32h2.73v.32c-.69.22-1.33.71-2.14,2.56l-3.82,8.81c-2.09,4.83-4.26,5.34-5.83,5.37-.96.02-1.67-.3-1.67-.69Z M65.03,94.17l-.22-2.98.22-.05c1.03,2.34,2.78,3.74,5.02,3.77,1.53,0,2.66-.91,2.66-2.29,0-1.77-1.72-2.34-3.62-2.95-2.34-.74-4.01-1.38-4.01-3.62,0-1.94,1.62-3.45,4.48-3.45,1.6,0,3.05.34,3.82.66l.1,2.51-.25.05c-.79-1.77-2.36-2.9-4.11-2.9s-2.76.81-2.76,2.07c0,1.55,1.58,2.19,3.52,2.83,1.87.62,4.14,1.18,4.14,3.64,0,2.07-1.55,3.82-4.5,3.84-1.97,0-3.67-.59-4.48-1.13Z M77.07,91.81v-8.69h-1.58v-.34l3.15-3.03h.34v3.03h3.74l-.12.34h-3.62v8.69c0,1.67.69,2.31,1.75,2.31.69,0,1.55-.32,2.36-1.28l.22.22c-1.06,1.21-2.31,2.26-3.77,2.26-1.55,0-2.49-.96-2.49-3.52Z M83.84,89.3c0-4.01,3.03-6.7,6.47-6.7,3.1,0,4.9,2.02,4.97,4.36h-9.63c-.05.37-.07.74-.07,1.13,0,3.37,2.09,5.69,5.29,5.69,1.9,0,3.25-.86,4.38-2.14l.22.22c-1.26,1.72-3.18,3.47-5.81,3.47s-5.83-1.97-5.83-6.03ZM93.31,86.64c-.25-1.65-1.58-3.59-3.82-3.59-2.09-.02-3.37,1.53-3.77,3.59h7.58Z M96.96,94.76c.76-.22.98-.79.98-2.81v-5.66c0-1.72-.32-1.97-.98-2.26v-.27l2.68-1.18.22.17v2.09c1.48-1.18,3.32-2.24,5.1-2.24s2.98.74,3.42,2.31c1.48-1.18,3.37-2.31,5.22-2.31,2.39,0,3.62,1.3,3.62,4.09v5.27c0,2.02.25,2.58.98,2.81v.32h-3.89v-.32c.76-.22.98-.79.98-2.81v-4.83c0-2.44-.89-3.72-2.81-3.72-1.4,0-2.68.76-4.04,1.82.1.42.15.91.15,1.45v5.27c0,2.02.22,2.58.98,2.81v.32h-3.89v-.32c.74-.22.98-.79.98-2.81v-4.83c0-2.44-.91-3.72-2.81-3.72-1.4,0-2.68.76-4.01,1.77v6.77c0,2.02.25,2.58.98,2.81v.32h-3.89v-.32Z M121.84,57.64c-.25-6.87-5.9-13.65-16.99-13.65,3.93-14.69.15-19.08.15-19.08-3.11-5.36-8.37-1.83-11.48,1.45-2.95,3.11-4.95,6.92-7.37,10.41.92-2.95,2.32-6.3,2.32-9.98,0-4.01-3.04-7.64-7.49-2.78-3.45,3.77-5.21,6.67-7.47,11.51.34-1.36.66-2.82.93-4.37,1.19-6.97,1.21-23.82-10.64-17.3-7.77,4.27-11.84,15.6-14.32,20.95-8.01,15.77-12.02,15.76-12.02,15.76-1.78,0,.03-5.96.56-7.53,2.37-6.98,5.94-13.5,8.67-20.32-2.3,1.77-5.47,1.24-5.47,1.24-2.13,5.18-4.18,9.53-7.09,14.32-2.33,3.84-5.9,9-9.85,11.25-7.15,4.08-5.91-5.98-5.14-9.92.51-2.58,1.41-5.31,2.3-7.79,0,0,.39-1.16,1.04-2.84,8.3-2.05,16.82-8.23,20.29-16.03,2.16-4.85,3.23-13.25-4.95-10.97-4.38,1.22-8.97,5.9-11.73,9.38-4.08,5.14-6.89,11.24-8.77,17.51-9.48,0-14.45-5.27-15.3-11.16C.27,5.64,12.63-2.11,23.48,1.59c2.63.9,2.71,1.12,3.6,1.62C16.86-3.97-.33,2.09.16,15.71c.25,6.87,5.9,13.65,16.99,13.65-3.93,14.69-.15,19.08-.15,19.08,3.11,5.36,8.37,1.83,11.48-1.45,2.95-3.11,4.95-6.92,7.37-10.41-.92,2.95-2.32,6.3-2.32,9.98,0,4.01,3.04,7.64,7.49,2.78,3.54-3.86,5.29-6.81,7.64-11.87-1,3.74-1.37,6.36-1.37,6.36-.6,5.4-.95,18.53,7.78,17.03,6.92-1.19,12.13-10.16,14.9-15.93,0,0,.43-.96,3.06-7.05,7.7-14.91,11.51-15.07,11.51-15.07,1.78,0-.03,5.96-.56,7.53-2.37,6.98-5.94,13.5-8.67,20.32,2.3-1.77,5.47-1.24,5.47-1.24,2.13-5.18,4.18-9.53,7.09-14.32,2.33-3.84,5.9-9,9.85-11.25,7.15-4.08,5.91,5.98,5.14,9.92-.51,2.58-1.41,5.31-2.3,7.79,0,0-.39,1.16-1.04,2.84-8.3,2.05-16.82,8.23-20.29,16.03-2.16,4.85-3.23,13.25,4.95,10.97,4.38-1.22,8.97-5.9,11.73-9.38,4.08-5.14,6.89-11.24,8.77-17.51,9.48,0,14.45,5.27,15.3,11.16,1.73,12.05-10.63,19.8-21.48,16.1-2.63-.9-2.71-1.12-3.6-1.62,10.22,7.19,27.41,1.13,26.91-12.49ZM31.2,11.52c1.67-2.63,5.68-8.43,8.91-8.94,5.35-.84,3.26,7.21,2.08,9.9-3.18,7.2-10.86,13.56-19.52,15.94.73-1.88,1.73-4.27,2.85-6.43,2.67-5.19,3.63-7.24,5.69-10.47ZM70.89,28.64c-1.95,7.82-5.74,17.87-9.87,24.78-1.4,2.34-4.08,6.74-7.05,6.88-5.45.24-4.39-7.99-3.81-11.41,1.55-9.12,7.65-25.65,13.48-32.84.92-1.14,2.05-2.53,3.57-2.83,7.55-1.53,4.63,11.68,3.69,15.43ZM90.8,61.83c-1.67,2.63-5.68,8.43-8.91,8.94-5.35.84-3.26-7.21-2.08-9.9,3.18-7.2,10.86-13.56,19.52-15.94-.73,1.88-1.73,4.27-2.85,6.43-2.67,5.19-3.63,7.24-5.69,10.47Z"/></svg>