<?xml version="1.0" encoding="UTF-8"?>
<svg id="Layer_1" xmlns="http://www.w3.org/2000/svg" version="1.1" viewBox="0 0 1000 500">
  <!-- Generator: Adobe Illustrator 29.8.5, SVG Export Plug-In . SVG Version: 2.1.1 Build 2)  -->
  <path d="M984.45,164.75C947.85,57.55,836.44-11.35,723.62,1.95c-115.21,10.6-186.92,95.2-229.22,189.69-56.31,122.9-103.51,263.09-266.63,248.59-134.81-11.8-207.02-168.49-149.01-280.19,39.1-82,155.31-123.19,235.52-90.5,15.1,6.5,26.7,14.1,37.4,25.1,3.2,3.4,6.6,7.4,6.3,10.9,2.9,38.4,30,48.6,61.21,61.7,9.8,5,17.1,13.3,27.8,17,15.3,3.8,27.4-3.5,35.1-15.7,7.7-10.3,2.1-27.9-5.5-36.4-6.6-8.9-11.7-20.4-15.4-31.6-7.6-25.8-29.8-38.5-50.7-43-9.1-3.4-17.8-12-25.5-17.2C251.78-51.14,55.96,21.05,11.16,175.45c-50.3,162.99,75.81,333.89,251.42,323.99,97.41-3.9,178.92-65.5,222.82-152.09,43.7-77.5,67.61-169.39,129.71-234.39,86.61-88,250.02-65.3,303.73,47.9,90.51,177.19-113.51,380.48-306.93,226.49-27.4-23.2-45.9-48.3-65.51-78.9-7.4-10.7-23.8-3.4-20.3,9.2,47.3,149.89,177.32,192.59,249.72,180.39,160.72-13.6,264.52-182.79,209.12-331.59l-.6-1.6.1-.1Z"/>
</svg>